# xmcd CD database file
#
# Track frame offsets:
#	150
#	16229
#	37250
#	53506
#	72038
#	90855
#	107119
#	122683
#	133936
#	153020
#	165175
#
# Disc length: 2450 seconds
#
# Revision: 0
# Processed by: cddbd v1.5.1PL0 Copyright (c) Steve Scherf et al.
# Submitted via: CDex 1.51
#
DISCID=7c09900b
DTITLE=Evelyn Fischer - Evelyn Fischer - Zurückgekommen ´´04
DYEAR=2004
DGENRE=Jazz
TTITLE0=Zurückgekommen
TTITLE1=Ich schreibe dir
TTITLE2=Die Zeit steht neben der Uhr
TTITLE3=Norden
TTITLE4=Nach Hause
TTITLE5=Hafen
TTITLE6=Schick mich bitte jetzt nach Haus
TTITLE7=Weicher Ton
TTITLE8=Dreißig
TTITLE9=Das alles bist du
TTITLE10=Athen
EXTD=YEAR: 2004
EXTT0=
EXTT1=
EXTT2=
EXTT3=
EXTT4=
EXTT5=
EXTT6=
EXTT7=
EXTT8=
EXTT9=
EXTT10=
PLAYORDER=
